<svg width="26" height="26" viewBox="0 0 289 372" fill="none" xmlns="http://www.w3.org/2000/svg">
    <path d="M0.332275 371.4L0.332278 248.638C0.332279 205.689 35.1488 170.873 78.0971 170.873L78.0971 293.635C78.0971 336.583 43.2806 371.4 0.332275 371.4Z" fill="#ADC4FF"/>
    <path d="M289 171.277L289 294.04C289 336.988 254.183 371.805 211.235 371.805L211.235 249.042C211.235 206.094 246.052 171.277 289 171.277Z" fill="#ADC4FF"/>
    <path d="M200.859 170.873L78.097 170.873C35.1486 170.873 0.332154 205.689 0.332155 248.638L123.095 248.638C166.043 248.638 200.859 213.821 200.859 170.873Z" fill="#5685FF"/>
    <path d="M287.256 145.383L145.027 145.383C65.0509 145.383 0.217472 80.5495 0.217478 0.573346L142.446 0.573355C222.423 0.57336 287.256 65.4069 287.256 145.383Z" fill="#5685FF"/>
    <path d="M287.256 145.383L113.64 145.383C72.2191 145.383 38.6404 111.804 38.6404 70.383L212.256 70.383C253.677 70.383 287.256 103.962 287.256 145.383Z" fill="#ADC4FF"/>
    <path d="M88.4727 371.805L211.235 371.805C254.183 371.805 289 336.988 289 294.04L166.237 294.04C123.289 294.04 88.4727 328.856 88.4727 371.805Z" fill="#5685FF"/>
</svg>
